<?xml version="1.0" encoding="utf-8"?>
<!-- Generator: Adobe Illustrator 17.0.0, SVG Export Plug-In . SVG Version: 6.00 Build 0)  -->
<!DOCTYPE svg PUBLIC "-//W3C//DTD SVG 1.1//EN" "http://www.w3.org/Graphics/SVG/1.1/DTD/svg11.dtd">
<svg version="1.1" id="Layer_1" xmlns="http://www.w3.org/2000/svg" xmlns:xlink="http://www.w3.org/1999/xlink" x="0px" y="0px"
	 width="445px" height="650px" viewBox="0 0 445 650" enable-background="new 0 0 445 650" xml:space="preserve">
<g>
	<defs>
		<rect id="SVGID_1_" y="0.912" width="444.315" height="649.088"/>
	</defs>
	<clipPath id="SVGID_2_">
		<use xlink:href="#SVGID_1_"  overflow="visible"/>
	</clipPath>
	<path clip-path="url(#SVGID_2_)" fill="#F18700" d="M224.2,535.924h-0.05c-20.98,0.166-37.921,2.438-37.921,23.24
		c0,0-2.131,32.645,37.921,90.769V650c0,0,0,0,0.05-0.067c40.076-58.124,37.89-90.769,37.89-90.769
		C262.09,538.362,245.179,536.09,224.2,535.924 M46.127,535.924c-12.743,0.083-23.036,1.493-23.036,14.15
		c0,0-1.306,19.789,23.036,55.088c24.294-35.299,23.042-55.088,23.042-55.088C69.169,537.417,58.847,536.007,46.127,535.924z
		 M398.705,535.924h-0.1c-12.697,0.083-22.966,1.493-22.966,14.15c0,0-1.272,19.789,22.966,55.088v0.083c0,0,0.075,0,0.1,0.033
		v-0.116c24.285-35.299,22.991-55.088,22.991-55.088C421.696,537.417,411.412,536.007,398.705,535.924z M443.825,366.66
		c-5.325-45.716-34.23-71.062-45.999-71.112c-9.891,0.05-31.791,17.965-41.736,50.709l-40.445-29.559
		c17.114-102.68,10.865-154.501,10.865-154.501C314.463,58.589,248.891,1.095,222.246,0.912h-0.079
		c-26.772,0.183-92.345,57.677-104.346,161.285c0,0-6.295,51.904,10.919,154.832l-40.429,29.46
		c-9.912-32.877-31.894-50.891-41.777-50.941H46.48c-11.844,0.05-40.707,25.396-45.978,71.112c0,0-3.408,27.984,7.531,83.371
		c8.46,42.665,15.307,61.16,20.706,72.888c0,0,2.704,5.076,9.057,5.076h17.343c6.423,0,9.078-5.076,9.078-5.076
		c5.424-11.728,12.271-30.223,20.785-72.888c0.447-2.72,0.924-5.258,1.426-7.829l58.746-42.813
		c14.556,63.532,26.678,95.447,36.863,117.094c0,0,5.976,11.512,20.428,11.512h39.301c14.506,0,20.532-11.512,20.532-11.512
		c10.131-21.697,22.324-53.595,36.879-117.393l58.672,42.68c0.502,2.738,0.986,5.392,1.488,8.261
		c8.502,42.665,15.353,61.16,20.847,72.888c0,0,2.584,5.076,8.983,5.076h17.318c6.37,0,9.132-5.076,9.132-5.076
		c5.366-11.728,12.274-30.223,20.71-72.888C447.183,394.644,443.825,366.66,443.825,366.66z M222.193,225.679
		c-27.582,0-49.939-22.36-49.939-49.896c0-27.586,22.357-49.93,49.939-49.93c27.552,0,49.891,22.344,49.891,49.93
		C272.084,203.319,249.745,225.679,222.193,225.679z"/>
</g>
</svg>
